<svg xmlns="http://www.w3.org/2000/svg" viewBox="0 0 595.28 841.89"><defs><style>.cls-1{fill:#fff;}.cls-2,.cls-8{fill:none;}.cls-2,.cls-3{stroke:#231815;stroke-miterlimit:10;}.cls-2{stroke-width:0.28px;}.cls-3,.cls-4{fill:#231815;}.cls-3{stroke-width:0.09px;}.cls-5{fill:#1d1717;}.cls-6{fill:#1b67b2;}.cls-7{fill:#69a3d8;}</style></defs><title>minamioosawa</title><g id="レイヤー_2" data-name="レイヤー 2"><g id="AW"><rect class="cls-1" width="595.28" height="841.89"/><line class="cls-2" x1="14.17" y1="280.63" x2="25.51" y2="280.63"/><line class="cls-2" x1="14.17" y1="420.94" x2="25.51" y2="420.94"/><path class="cls-3" d="M472.43,41.48c.82-1.72,1.72-3.41,2.48-5.16h1.57v.24a1.08,1.08,0,0,0-.65.11c-.12.09-.17.24-.17.55,0,1.45.08,3,.12,4.39,0,.7.08.9,1,.9v.24l-1.52,0-1.34,0v-.24a1.72,1.72,0,0,0,.71-.08c.16-.1.24-.27.24-.63l-.07-4.4h0l-2.17,4.52a9.06,9.06,0,0,0-.36.91h-.19c-.78-1.76-1.66-3.48-2.54-5.22h0l-.07,3.33c0,.12,0,.45,0,.58,0,.45.05.7.19.83a1.13,1.13,0,0,0,.75.16v.24l-1.14,0-1.23,0v-.24c.66,0,1.06-.16,1.1-1.39s.1-2.52.1-3.78c0-.32,0-.53-.17-.64a1,1,0,0,0-.64-.14v-.24H470Z"/><path class="cls-3" d="M477.52,42.51h.18c.25,0,.44,0,.44-.31V39.71c0-.41-.14-.46-.48-.65v-.15a7.69,7.69,0,0,0,1-.33.41.41,0,0,1,.17,0c.05,0,.06.05.06.13V42.2c0,.31.21.31.46.31h.16v.24l-1,0-1,0Zm1-5.39a.45.45,0,1,1,0-.9.45.45,0,0,1,.45.44A.46.46,0,0,1,478.51,37.12Z"/><path class="cls-3" d="M480.92,39.76c0-.34-.1-.43-.53-.61V39c.39-.13.77-.25,1.21-.44,0,0,.06,0,.06.09v.6a2.65,2.65,0,0,1,1.59-.69c.78,0,1.06.57,1.06,1.29V42.2c0,.31.2.31.46.31h.17v.24l-1,0-1,0v-.24h.16c.26,0,.44,0,.44-.31V39.82a.74.74,0,0,0-.84-.79,2.35,2.35,0,0,0-1.07.45V42.2c0,.31.2.31.46.31h.16v.24l-1,0-1,0v-.24h.17c.26,0,.44,0,.44-.31Z"/><path class="cls-3" d="M489.7,42.39a1.42,1.42,0,0,1-.91.49c-.38,0-.56-.34-.57-.68a2.06,2.06,0,0,1-1.42.68.93.93,0,0,1-1-.89c0-.73.42-.87,2.41-1.56v-.6c0-.52-.31-.8-.9-.8a.64.64,0,0,0-.7.65c0,.26-.29.39-.51.39a.17.17,0,0,1-.17-.19c0-.49.42-.72,1.06-1.05a1.63,1.63,0,0,1,.83-.29c.41,0,1.12.26,1.12.77v2.55c0,.38.13.53.33.53a.48.48,0,0,0,.35-.16Zm-1.49-1.69c-.47.19-1.67.4-1.67,1.09a.66.66,0,0,0,.65.66,1.53,1.53,0,0,0,1-.53Z"/><path class="cls-3" d="M491.16,39.71c0-.41-.14-.46-.48-.65v-.15a8.35,8.35,0,0,0,1-.33.41.41,0,0,1,.17,0s.06.05.06.13v.56a2.64,2.64,0,0,1,1.6-.69.92.92,0,0,1,1,.71,2.73,2.73,0,0,1,1.59-.71c.8,0,1.09.62,1.09,1.3V42.2c0,.31.21.31.46.31h.14v.24l-.95,0-1,0v-.24H496c.26,0,.45,0,.45-.31v-2c0-.58-.12-1.14-.8-1.14a2.4,2.4,0,0,0-1.09.45V42.2c0,.31.21.31.47.31h.16v.24l-1,0-1,0v-.24h.17c.26,0,.44,0,.44-.31v-2c0-.58-.12-1.14-.8-1.14a2.4,2.4,0,0,0-1.09.45V42.2c0,.31.2.31.46.31h.17v.24l-1,0-1,0v-.24h.19c.26,0,.45,0,.45-.31Z"/><path class="cls-3" d="M498.53,42.51h.18c.26,0,.44,0,.44-.31V39.71c0-.41-.14-.46-.48-.65v-.15a8.08,8.08,0,0,0,1-.33.37.37,0,0,1,.16,0c.05,0,.07.05.07.13V42.2c0,.31.2.31.46.31h.16v.24l-1,0-1,0Zm1-5.39a.45.45,0,1,1,0-.9.45.45,0,0,1,.45.44A.46.46,0,0,1,499.52,37.12Z"/><path class="cls-3" d="M503.64,40.8c-.37,0-.74,0-1.11,0s-.74,0-1.11,0l.08-.6,1.12,0,1.1,0Z"/><path class="cls-3" d="M508.27,36.18A3.35,3.35,0,1,1,505,39.57,3.34,3.34,0,0,1,508.27,36.18Zm.09,6.41c1.34,0,2.19-1.16,2.19-2.83,0-1.4-.81-3.29-2.39-3.29-1.34,0-2.19,1.16-2.19,2.83C506,40.7,506.78,42.59,508.36,42.59Z"/><path class="cls-3" d="M512.88,41.47A1.21,1.21,0,0,0,514,42.59a.65.65,0,0,0,.75-.65c0-1.09-2-.74-2-2.22a1.26,1.26,0,0,1,1.42-1.18,2.49,2.49,0,0,1,1.06.26l.06.94h-.21a1,1,0,0,0-1-.91.65.65,0,0,0-.72.61c0,1.08,2.14.75,2.14,2.19,0,.61-.49,1.25-1.58,1.25a2.4,2.4,0,0,1-1.13-.31l-.1-1.06Z"/><path class="cls-3" d="M520.56,42.39a1.4,1.4,0,0,1-.91.49c-.38,0-.55-.34-.57-.68a2,2,0,0,1-1.42.68.92.92,0,0,1-1-.89c0-.73.41-.87,2.4-1.56v-.6c0-.52-.3-.8-.89-.8a.63.63,0,0,0-.7.65c0,.26-.3.39-.52.39a.17.17,0,0,1-.17-.19c0-.49.42-.72,1.06-1.05a1.66,1.66,0,0,1,.83-.29c.42,0,1.13.26,1.13.77v2.55c0,.38.13.53.33.53a.46.46,0,0,0,.34-.16Zm-1.49-1.69c-.47.19-1.67.4-1.67,1.09a.67.67,0,0,0,.66.66,1.5,1.5,0,0,0,1-.53Z"/><path class="cls-3" d="M521.67,39.62c-.27-.7-.36-.71-.71-.71v-.23h1.83v.23c-.32,0-.48,0-.48.18a1,1,0,0,0,.08.28l1,2.47.79-2a1.06,1.06,0,0,0,0-.31c0-.43-.28-.57-.66-.6v-.23h1.92v.23c-.24,0-.52,0-.52.23a3.37,3.37,0,0,0,.21.68l.77,2h0c.27-.66.53-1.33.79-2a2.48,2.48,0,0,0,.15-.66c0-.27-.37-.26-.56-.27v-.23h1.6v.23c-.42,0-.56.25-.72.67l-1.3,3.25-.33.05L524.4,40l-1.1,2.85-.32.05Z"/><path class="cls-3" d="M532.52,42.39a1.4,1.4,0,0,1-.91.49c-.38,0-.55-.34-.57-.68a2.06,2.06,0,0,1-1.42.68.93.93,0,0,1-1-.89c0-.73.42-.87,2.41-1.56v-.6c0-.52-.31-.8-.9-.8a.64.64,0,0,0-.7.65c0,.26-.29.39-.51.39a.17.17,0,0,1-.17-.19c0-.49.42-.72,1.06-1.05a1.63,1.63,0,0,1,.83-.29c.42,0,1.12.26,1.12.77v2.55c0,.38.13.53.34.53a.47.47,0,0,0,.34-.16ZM531,40.7c-.47.19-1.67.4-1.67,1.09a.66.66,0,0,0,.65.66,1.53,1.53,0,0,0,1-.53Z"/><path class="cls-3" d="M542.16,38h-.23a1.76,1.76,0,0,0-2-1.51,2.63,2.63,0,0,0-2.59,2.92,3,3,0,0,0,2.74,3.2A1.87,1.87,0,0,0,542,41l.21,0L542,42.4a5.1,5.1,0,0,1-2,.48,3.28,3.28,0,0,1-3.52-3.46,3.38,3.38,0,0,1,3.49-3.24,6.52,6.52,0,0,1,2.17.49Z"/><path class="cls-3" d="M547,42.39a1.42,1.42,0,0,1-.91.49c-.38,0-.56-.34-.57-.68a2.06,2.06,0,0,1-1.42.68.93.93,0,0,1-1-.89c0-.73.42-.87,2.41-1.56v-.6c0-.52-.31-.8-.9-.8a.64.64,0,0,0-.7.65c0,.26-.29.39-.51.39a.17.17,0,0,1-.17-.19c0-.49.42-.72,1.06-1.05a1.63,1.63,0,0,1,.83-.29c.41,0,1.12.26,1.12.77v2.55c0,.38.13.53.34.53a.47.47,0,0,0,.34-.16Zm-1.49-1.69c-.47.19-1.67.4-1.67,1.09a.66.66,0,0,0,.65.66,1.53,1.53,0,0,0,1-.53Z"/><path class="cls-3" d="M548.44,39.71c0-.41-.14-.46-.48-.65v-.15a9.63,9.63,0,0,0,1-.33.34.34,0,0,1,.16,0s.07.05.07.13v.56a2.62,2.62,0,0,1,1.59-.69.93.93,0,0,1,1,.71,2.7,2.7,0,0,1,1.58-.71c.8,0,1.1.62,1.1,1.3V42.2c0,.31.2.31.46.31H555v.24l-.95,0-1,0v-.24h.17c.26,0,.44,0,.44-.31v-2c0-.58-.12-1.14-.8-1.14a2.4,2.4,0,0,0-1.09.45V42.2c0,.31.21.31.47.31h.17v.24l-1,0-1,0v-.24h.16c.26,0,.45,0,.45-.31v-2c0-.58-.12-1.14-.81-1.14a2.36,2.36,0,0,0-1.08.45V42.2c0,.31.2.31.46.31h.16v.24l-1,0-1,0v-.24h.2c.26,0,.44,0,.44-.31Z"/><path class="cls-3" d="M557.13,44.39c0,.22.23.22.43.22H558v.24l-1.17,0-1.15,0v-.24H556c.34,0,.39-.16.39-.3V40c0-.7-.28-.67-.54-.8V39c.36-.17.71-.34,1.08-.5l.09,0s.11,0,.11.08v.66a2.22,2.22,0,0,1,1.39-.68,1.84,1.84,0,0,1,1.69,2A2.34,2.34,0,0,1,558,42.88a2.27,2.27,0,0,1-.82-.17Zm.82-5.25a1.52,1.52,0,0,0-.82.31V42a1.1,1.1,0,0,0,1,.64c.9,0,1.37-.92,1.37-1.71A1.59,1.59,0,0,0,558,39.14Z"/><path class="cls-3" d="M565.08,42.24c0,.17.1.18.25.18h.37v.19a10.81,10.81,0,0,0-1.32.28l0,0v-.75a2.47,2.47,0,0,1-1.63.77,1,1,0,0,1-1-1.09V39.43c0-.24,0-.47-.55-.52v-.17l1.18-.06c.1,0,.1.06.1.26v2.38c0,.28,0,1.07.81,1.07a2.08,2.08,0,0,0,1.11-.56V39.35c0-.19-.44-.29-.77-.38V38.8c.83,0,1.34-.12,1.43-.12s.08.06.08.16Z"/><path class="cls-3" d="M566.73,41.47a1.22,1.22,0,0,0,1.17,1.12.65.65,0,0,0,.74-.65c0-1.09-2-.74-2-2.22a1.27,1.27,0,0,1,1.43-1.18,2.45,2.45,0,0,1,1.05.26l.07.94H569a1,1,0,0,0-1-.91.65.65,0,0,0-.72.61c0,1.08,2.14.75,2.14,2.19,0,.61-.49,1.25-1.59,1.25a2.36,2.36,0,0,1-1.12-.31l-.1-1.06Z"/><path class="cls-4" d="M375.59,55.84c0,.25.14.34.51.34h.35v.2h-2.51v-.2h.43c.37,0,.51-.09.51-.34V51.6c-.35.2-.74.41-1.12.6l-.1-.19a18.34,18.34,0,0,0,1.86-1.12l.07,0Z"/><path class="cls-4" d="M379.49,54.74q-.47,0-.93,0c-.32,0-.64,0-.95,0l.07-.52c.31,0,.63,0,.95,0s.62,0,.93,0Z"/><path class="cls-4" d="M382.52,55.84c0,.25.14.34.51.34h.35v.2h-2.51v-.2h.43c.37,0,.51-.09.51-.34V51.6c-.35.2-.74.41-1.12.6l-.1-.19a18.34,18.34,0,0,0,1.86-1.12l.07,0Z"/><path class="cls-4" d="M390.31,55.31c.7-1.45,1.46-2.89,2.11-4.37l.64,0,.68,0v.2a.92.92,0,0,0-.54.1c-.11.07-.15.21-.15.46,0,1.24.07,2.55.1,3.72,0,.59.07.76.85.76v.2h-2.43v-.2a1.37,1.37,0,0,0,.6-.07c.14-.08.21-.23.21-.53l-.06-3.72h0l-1.84,3.82c-.09.19-.24.57-.31.77H390c-.67-1.49-1.41-2.94-2.15-4.42h0l-.06,2.82c0,.1,0,.39,0,.5,0,.38,0,.59.16.7a1,1,0,0,0,.63.13v.2h-2v-.2c.55,0,.9-.13.93-1.18s.08-2.13.08-3.19c0-.28,0-.45-.14-.54a.78.78,0,0,0-.54-.13v-.2l.83,0,.49,0Z"/><path class="cls-4" d="M394.43,56.18h.14c.22,0,.38,0,.38-.26V53.81c0-.34-.12-.39-.41-.55v-.12c.37-.11.81-.26.84-.28a.27.27,0,0,1,.14,0s.05,0,.05.11v3c0,.26.17.26.39.26h.14v.2h-1.67Zm.83-4.56a.39.39,0,0,1,0-.77.39.39,0,0,1,0,.77Z"/><path class="cls-4" d="M397.07,53.86c0-.29-.09-.37-.45-.52v-.15c.33-.11.65-.21,1-.37,0,0,0,0,0,.08v.5a2.3,2.3,0,0,1,1.35-.58c.66,0,.9.48.9,1.09v2c0,.26.17.26.39.26h.14v.2H398.8v-.2h.14c.22,0,.37,0,.37-.26v-2a.62.62,0,0,0-.71-.66,2.12,2.12,0,0,0-.91.37v2.31c0,.26.17.26.39.26h.14v.2h-1.67v-.2h.14c.22,0,.38,0,.38-.26Z"/><path class="cls-4" d="M404.3,56.08a1.21,1.21,0,0,1-.77.42c-.32,0-.47-.3-.48-.58a1.74,1.74,0,0,1-1.2.58.78.78,0,0,1-.84-.76c0-.62.35-.74,2-1.31v-.52c0-.44-.26-.67-.76-.67a.54.54,0,0,0-.59.55c0,.21-.25.32-.43.32a.14.14,0,0,1-.15-.15c0-.42.36-.61.9-.89a1.35,1.35,0,0,1,.7-.25c.35,0,1,.23,1,.65v2.16c0,.32.11.45.28.45a.39.39,0,0,0,.29-.13ZM403,54.65c-.4.16-1.41.34-1.41.92a.56.56,0,0,0,.55.56,1.28,1.28,0,0,0,.86-.45Z"/><path class="cls-4" d="M405.3,53.81c0-.34-.12-.39-.4-.55v-.12c.36-.11.79-.26.83-.28a.27.27,0,0,1,.14,0s.05,0,.05.11v.47a2.26,2.26,0,0,1,1.35-.58.78.78,0,0,1,.83.6,2.36,2.36,0,0,1,1.34-.6c.68,0,.93.53.93,1.1v2c0,.26.17.26.39.26h.11v.2h-1.64v-.2h.14c.22,0,.37,0,.37-.26V54.2c0-.49-.1-1-.67-1a2,2,0,0,0-.92.37v2.31c0,.26.17.26.39.26h.14v.2H407v-.2h.14c.22,0,.37,0,.37-.26V54.2c0-.49-.1-1-.68-1a2.12,2.12,0,0,0-.92.37v2.31c0,.26.18.26.39.26h.14v.2h-1.69v-.2h.17c.21,0,.37,0,.37-.26Z"/><path class="cls-4" d="M411.31,56.18h.15c.22,0,.37,0,.37-.26V53.81c0-.34-.11-.39-.4-.55v-.12c.36-.11.8-.26.83-.28a.3.3,0,0,1,.14,0s.06,0,.06.11v3c0,.26.17.26.39.26H413v.2h-1.67Zm.84-4.56a.39.39,0,1,1,0-.77.39.39,0,0,1,0,.77Z"/><path class="cls-4" d="M415.51,54.74q-.47,0-.93,0c-.32,0-.64,0-.95,0l.07-.52c.32,0,.63,0,.95,0s.62,0,.93,0Z"/><path class="cls-4" d="M419.24,50.82a2.84,2.84,0,1,1-2.81,2.87A2.83,2.83,0,0,1,419.24,50.82Zm.07,5.43c1.14,0,1.85-1,1.85-2.39,0-1.19-.68-2.79-2-2.79-1.14,0-1.86,1-1.86,2.4C417.29,54.65,418,56.25,419.31,56.25Z"/><path class="cls-4" d="M422.94,55.3a1,1,0,0,0,1,1c.46,0,.63-.28.63-.55,0-.92-1.69-.63-1.69-1.88a1.07,1.07,0,0,1,1.2-1,2,2,0,0,1,.89.23l.06.79h-.18a.8.8,0,0,0-.85-.77.55.55,0,0,0-.61.51c0,.92,1.81.63,1.81,1.86,0,.51-.41,1.06-1.34,1.06a2,2,0,0,1-.95-.27l-.09-.89Z"/><path class="cls-4" d="M429.17,56.08a1.21,1.21,0,0,1-.77.42c-.32,0-.47-.3-.49-.58a1.7,1.7,0,0,1-1.2.58.78.78,0,0,1-.84-.76c0-.62.35-.74,2-1.31v-.52c0-.44-.26-.67-.76-.67a.54.54,0,0,0-.59.55c0,.21-.25.32-.44.32A.14.14,0,0,1,426,54c0-.42.35-.61.9-.89a1.32,1.32,0,0,1,.7-.25c.35,0,.95.23.95.65v2.16c0,.32.11.45.28.45a.41.41,0,0,0,.29-.13Zm-1.26-1.43c-.4.16-1.41.34-1.41.92a.55.55,0,0,0,.55.56,1.3,1.3,0,0,0,.86-.45Z"/><path class="cls-4" d="M430,53.74c-.23-.59-.31-.6-.6-.6v-.2H431v.2c-.28,0-.41,0-.41.15a.87.87,0,0,0,.06.23l.82,2.1.66-1.72a.51.51,0,0,0,0-.25c0-.37-.24-.49-.56-.51v-.2h1.62v.2c-.19,0-.43,0-.43.19a2.63,2.63,0,0,0,.18.57l.64,1.72h0c.23-.56.44-1.13.66-1.7a1.85,1.85,0,0,0,.13-.55c0-.23-.31-.22-.47-.23v-.2h1.35v.2c-.35,0-.47.21-.61.56l-1.1,2.75-.28,0-1-2.46-.93,2.41-.28,0Z"/><path class="cls-4" d="M439,56.08a1.19,1.19,0,0,1-.77.42c-.32,0-.47-.3-.48-.58a1.74,1.74,0,0,1-1.2.58.78.78,0,0,1-.84-.76c0-.62.35-.74,2-1.31v-.52c0-.44-.26-.67-.76-.67a.54.54,0,0,0-.59.55c0,.21-.25.32-.43.32a.14.14,0,0,1-.14-.15c0-.42.35-.61.89-.89a1.35,1.35,0,0,1,.7-.25c.35,0,.95.23.95.65v2.16c0,.32.11.45.28.45a.39.39,0,0,0,.29-.13Zm-1.26-1.43c-.4.16-1.41.34-1.41.92a.56.56,0,0,0,.55.56,1.28,1.28,0,0,0,.86-.45Z"/><path class="cls-4" d="M439.69,57.68a1,1,0,0,0,.9-.9c0-.3-.15-.38-.44-.38a.46.46,0,0,1-.46-.45c0-.33.28-.48.58-.48a.87.87,0,0,1,.78.91,1.48,1.48,0,0,1-1.3,1.49Z"/><path class="cls-4" d="M448.45,53.4V51.7c0-.54-.3-.55-.71-.56v-.2l1.15,0,1,0v.2c-.41,0-.71,0-.71.56v3.92c0,.54.3.55.71.56v.2h-2.18v-.2c.41,0,.71,0,.71-.56v-1.9H445.3v1.9c0,.54.29.55.71.56v.2h-2.19v-.2c.42,0,.71,0,.71-.56V51.7c0-.54-.29-.55-.71-.56v-.2l1.08,0,1.11,0v.2c-.42,0-.71,0-.71.56v1.7Z"/><path class="cls-4" d="M453.75,56.08a1.21,1.21,0,0,1-.78.42c-.32,0-.46-.3-.48-.58a1.74,1.74,0,0,1-1.2.58.78.78,0,0,1-.84-.76c0-.62.35-.74,2-1.31v-.52c0-.44-.25-.67-.75-.67a.53.53,0,0,0-.59.55c0,.21-.25.32-.44.32a.14.14,0,0,1-.14-.15c0-.42.35-.61.89-.89a1.39,1.39,0,0,1,.71-.25c.35,0,.95.23.95.65v2.16c0,.32.11.45.28.45a.41.41,0,0,0,.29-.13Zm-1.27-1.43c-.39.16-1.41.34-1.41.92a.56.56,0,0,0,.56.56,1.26,1.26,0,0,0,.85-.45Z"/><path class="cls-4" d="M457.32,55.69a2.07,2.07,0,0,1-1.52.81,1.66,1.66,0,0,1-1.55-1.61,2,2,0,0,1,1.94-2.07c.39,0,1.05.12,1.05.54a.31.31,0,0,1-.3.34c-.33,0-.31-.63-1-.63s-1,.75-1,1.34a1.4,1.4,0,0,0,1.36,1.51,1.45,1.45,0,0,0,.95-.36Z"/><path class="cls-4" d="M458.28,51.58c0-.51-.11-.52-.41-.61v-.12a5,5,0,0,0,.8-.34l.17-.08c.05,0,.07,0,.07.11v3a1.84,1.84,0,0,1,1.2-.69,1,1,0,0,1,1,1.18v1.92c0,.26.17.26.39.26h.14v.2H460v-.2h.14c.36,0,.39-.09.39-.85v-.88c0-.57-.06-1.16-.77-1.16a1.39,1.39,0,0,0-.85.43v2.2c0,.26.17.26.39.26h.14v.2h-1.67v-.2h.14c.22,0,.37,0,.37-.26Z"/><path class="cls-4" d="M462.14,56.18h.15c.22,0,.37,0,.37-.26V53.81c0-.34-.11-.39-.4-.55v-.12c.36-.11.8-.26.83-.28a.3.3,0,0,1,.14,0s.06,0,.06.11v3c0,.26.17.26.39.26h.13v.2h-1.67Zm.84-4.56a.39.39,0,1,1,0-.77.39.39,0,0,1,0,.77Z"/><path class="cls-4" d="M466.21,52.82a1.79,1.79,0,0,1,1.9,1.82,1.84,1.84,0,0,1-1.8,1.86,1.84,1.84,0,0,1-.1-3.68Zm.09,3.48c.78,0,1.09-.91,1.09-1.58s-.34-1.7-1.17-1.7-1.08.91-1.08,1.58S465.48,56.3,466.3,56.3Z"/><path class="cls-4" d="M469.87,56.68c0,1-.49,1.17-1.23,1.48l-.05-.18c.64-.31.65-.62.65-1.22V53.81c0-.34-.12-.39-.51-.55v-.12a4.57,4.57,0,0,0,.94-.28.3.3,0,0,1,.14,0s.06,0,.06.11Zm-.32-5.06a.39.39,0,0,1,0-.77.39.39,0,0,1,.39.38A.4.4,0,0,1,469.55,51.62Z"/><path class="cls-4" d="M470.93,56.18h.14c.22,0,.38,0,.38-.26V53.81c0-.34-.12-.39-.41-.55v-.12c.37-.11.81-.26.84-.28a.27.27,0,0,1,.14,0s.05,0,.05.11v3c0,.26.17.26.39.26h.13v.2h-1.66Zm.83-4.56a.39.39,0,0,1,0-.77.39.39,0,0,1,0,.77Z"/><path class="cls-4" d="M475.09,54.74c-.31,0-.63,0-.94,0s-.63,0-.94,0l.07-.52c.31,0,.62,0,.94,0s.63,0,.94,0Z"/><path class="cls-4" d="M476,55.3a1,1,0,0,0,1,1c.46,0,.63-.28.63-.55,0-.92-1.7-.63-1.7-1.88a1.07,1.07,0,0,1,1.21-1,2,2,0,0,1,.89.23l.05.79h-.18a.8.8,0,0,0-.85-.77.55.55,0,0,0-.61.51c0,.92,1.81.63,1.81,1.86,0,.51-.41,1.06-1.34,1.06a2,2,0,0,1-.95-.27l-.09-.89Z"/><path class="cls-4" d="M479.27,51.58c0-.51-.11-.52-.41-.61v-.12a5,5,0,0,0,.8-.34.56.56,0,0,1,.18-.08s.06,0,.06.11v3a1.84,1.84,0,0,1,1.2-.69,1,1,0,0,1,1,1.18v1.92c0,.26.17.26.39.26h.14v.2H481v-.2h.14c.37,0,.39-.09.39-.85v-.88c0-.57-.06-1.16-.76-1.16a1.39,1.39,0,0,0-.86.43v2.2c0,.26.17.26.39.26h.14v.2h-1.67v-.2h.14c.22,0,.37,0,.37-.26Z"/><path class="cls-4" d="M483.13,56.18h.15c.22,0,.37,0,.37-.26V53.81c0-.34-.11-.39-.4-.55v-.12c.37-.11.8-.26.83-.28a.33.33,0,0,1,.14,0s.06,0,.06.11v3c0,.26.17.26.39.26h.13v.2h-1.67Zm.84-4.56a.4.4,0,0,1-.38-.39.39.39,0,0,1,.38-.38.39.39,0,0,1,0,.77Z"/><path class="cls-4" d="M485.46,57.68a1,1,0,0,0,.89-.9c0-.3-.15-.38-.43-.38a.46.46,0,0,1-.46-.45c0-.33.28-.48.57-.48a.87.87,0,0,1,.78.91,1.48,1.48,0,0,1-1.3,1.49Z"/><path class="cls-4" d="M494.38,52h-.21c0-.42,0-.7-.62-.7h-1.19v4.36c0,.54.3.55.71.56v.2h-2.18v-.2c.41,0,.71,0,.71-.56V51.26h-1c-.7,0-.74.19-.87.7h-.2l.08-1.24h.16c.09.21.3.22.49.22h3.54c.28,0,.48-.07.51-.22h.16Z"/><path class="cls-4" d="M495.91,52.82a1.78,1.78,0,0,1,1.89,1.82A1.83,1.83,0,0,1,496,56.5a1.84,1.84,0,0,1-.1-3.68ZM496,56.3c.78,0,1.09-.91,1.09-1.58s-.35-1.7-1.17-1.7-1.08.91-1.08,1.58S495.18,56.3,496,56.3Z"/><path class="cls-4" d="M502.08,53.14a1.28,1.28,0,0,0-1,.44l-.87.77,1.32,1.46c.31.35.36.37.72.38v.19h-1.13a2.51,2.51,0,0,0-.25-.32l-1.24-1.4h-.15v1.26c0,.26.17.26.39.26h.14v.2h-1.67v-.2h.14c.22,0,.37,0,.37-.26V51.58c0-.51-.11-.52-.41-.61v-.12a5,5,0,0,0,.8-.34.56.56,0,0,1,.18-.08s.06,0,.06.11v3.94l.25,0,.84-.74c.12-.11.3-.29.3-.4s-.25-.15-.38-.15v-.2h1.55Z"/><path class="cls-4" d="M502.64,52.94h1.6v.2c-.15,0-.43,0-.43.21s.7,1.78.79,2.1h0c.16-.46.77-1.77.77-2s-.25-.33-.44-.33v-.2h1.32v.2c-.37,0-.48.2-.62.5l-1.76,4.13c-.12.27-.27.39-.5.39a.37.37,0,0,1-.38-.37.39.39,0,0,1,.37-.39.37.37,0,0,1,.32.11c.39-.81.55-1.25.55-1.25s-1-2.65-1.12-2.83a.46.46,0,0,0-.49-.29Z"/><path class="cls-4" d="M508.47,52.82a1.78,1.78,0,0,1,1.9,1.82,1.84,1.84,0,0,1-1.79,1.86,1.84,1.84,0,0,1-.11-3.68Zm.1,3.48c.78,0,1.08-.91,1.08-1.58s-.34-1.7-1.17-1.7-1.07.91-1.07,1.58S507.75,56.3,508.57,56.3Z"/><path class="cls-4" d="M511.1,57.68a1,1,0,0,0,.9-.9c0-.3-.15-.38-.44-.38a.46.46,0,0,1-.46-.45c0-.33.28-.48.58-.48a.87.87,0,0,1,.78.91,1.48,1.48,0,0,1-1.3,1.49Z"/><path class="cls-4" d="M517.15,55.71a2.73,2.73,0,0,1-.36,1.69,1.48,1.48,0,0,1-1.22.64c-.38,0-.8-.15-.8-.52a.32.32,0,0,1,.33-.34.26.26,0,0,1,.25.28c0,.21.19.33.42.33.62,0,.62-1,.62-1.6V51.7c0-.54-.3-.55-.71-.56v-.2l1.07,0,1.11,0v.2c-.41,0-.71,0-.71.56Z"/><path class="cls-4" d="M521.69,56.08a1.21,1.21,0,0,1-.78.42c-.31,0-.46-.3-.48-.58a1.74,1.74,0,0,1-1.2.58.78.78,0,0,1-.84-.76c0-.62.35-.74,2-1.31v-.52c0-.44-.25-.67-.75-.67a.53.53,0,0,0-.59.55c0,.21-.25.32-.44.32a.14.14,0,0,1-.14-.15c0-.42.35-.61.9-.89a1.32,1.32,0,0,1,.7-.25c.35,0,.95.23.95.65v2.16c0,.32.11.45.28.45a.41.41,0,0,0,.29-.13Zm-1.27-1.43c-.39.16-1.41.34-1.41.92a.56.56,0,0,0,.56.56,1.26,1.26,0,0,0,.85-.45Z"/><path class="cls-4" d="M523.36,57.77c0,.19.19.19.36.19h.35v.2l-1,0-1,0V58h.29c.29,0,.33-.14.33-.25V54c0-.59-.23-.56-.46-.67v-.12l.92-.42.08,0s.09,0,.09.07v.56a1.8,1.8,0,0,1,1.17-.58A1.57,1.57,0,0,1,526,54.48a2,2,0,0,1-1.92,2,1.78,1.78,0,0,1-.69-.15Zm.69-4.44a1.27,1.27,0,0,0-.69.26v2.12a.94.94,0,0,0,.83.54c.75,0,1.15-.78,1.15-1.45A1.34,1.34,0,0,0,524.05,53.33Z"/><path class="cls-4" d="M529.92,56.08a1.21,1.21,0,0,1-.77.42c-.32,0-.47-.3-.49-.58a1.7,1.7,0,0,1-1.2.58.78.78,0,0,1-.84-.76c0-.62.35-.74,2-1.31v-.52c0-.44-.25-.67-.75-.67a.54.54,0,0,0-.59.55c0,.21-.25.32-.44.32a.14.14,0,0,1-.14-.15c0-.42.35-.61.9-.89a1.32,1.32,0,0,1,.7-.25c.35,0,.95.23.95.65v2.16c0,.32.11.45.28.45a.41.41,0,0,0,.29-.13Zm-1.27-1.43c-.39.16-1.41.34-1.41.92a.56.56,0,0,0,.56.56,1.26,1.26,0,0,0,.85-.45Z"/><path class="cls-4" d="M530.92,53.86c0-.29-.09-.37-.46-.52v-.15a10.81,10.81,0,0,0,1-.37s0,0,0,.08v.5a2.27,2.27,0,0,1,1.35-.58c.66,0,.89.48.89,1.09v2c0,.26.18.26.39.26h.14v.2h-1.66v-.2h.14c.21,0,.37,0,.37-.26v-2c0-.44-.27-.66-.72-.66a2.08,2.08,0,0,0-.9.37v2.31c0,.26.17.26.39.26h.14v.2H530.4v-.2h.14c.22,0,.38,0,.38-.26Z"/><path class="cls-4" d="M539.33,55.84c0,.25.14.34.51.34h.35v.2h-2.51v-.2h.43c.37,0,.51-.09.51-.34V51.6c-.35.2-.74.41-1.12.6l-.1-.19a18.34,18.34,0,0,0,1.86-1.12l.07,0Z"/><path class="cls-4" d="M541.37,56.34a3.66,3.66,0,0,0,2.82-3.15h0a1.44,1.44,0,0,1-1.31.78,1.3,1.3,0,0,1-1.3-1.37,1.69,1.69,0,0,1,1.69-1.7,1.76,1.76,0,0,1,1.65,2c0,2.42-2.67,3.62-3.47,3.63Zm1.85-2.85a.9.9,0,0,0,1-.84c0-.74-.23-1.52-1-1.52s-1,.57-1,1.18S542.56,53.49,543.22,53.49Z"/><path class="cls-4" d="M545.62,56.23c1.52-1.33,2.49-2.59,2.49-3.62,0-.63-.29-1.21-1-1.21-.53,0-.83.38-1.13.74l-.15-.16a2,2,0,0,1,1.65-1.09,1.33,1.33,0,0,1,1.33,1.43c0,1.33-1.51,2.56-2.36,3.44H549l.17-.41h.22l-.23,1h-3.54Z"/><path class="cls-4" d="M552,54.74c-.31,0-.63,0-.94,0s-.63,0-.94,0l.07-.52c.31,0,.62,0,.94,0l.94,0Z"/><path class="cls-4" d="M554.63,56.5c-1.14,0-1.7-1.41-1.7-2.65,0-2.21,1.09-3,1.82-3,1.14,0,1.7,1.41,1.7,2.65C556.45,55.74,555.36,56.5,554.63,56.5Zm.08-5.37c-1.14,0-1.11,2.17-1.11,2.76,0,.9.2,2.36,1,2.36,1.13,0,1.1-2.17,1.1-2.75C555.73,52.59,555.53,51.13,554.71,51.13Z"/><path class="cls-4" d="M558.27,53.53a1.35,1.35,0,0,0,1.36-1.23.88.88,0,0,0-.9-.95,1.34,1.34,0,0,0-1,.54l-.12-.15a1.92,1.92,0,0,1,1.5-.85,1.08,1.08,0,0,1,1.13,1.1,1.61,1.61,0,0,1-1.13,1.38v0a1.23,1.23,0,0,1,1.41,1.25,2,2,0,0,1-2.1,1.86c-.72,0-1.19-.41-1.19-.66a.27.27,0,0,1,.25-.25c.29,0,.29.66,1.09.66a1.22,1.22,0,0,0,1.23-1.3c0-1-.68-1.27-1.56-1.22Z"/><path class="cls-4" d="M561.53,56.34a3.66,3.66,0,0,0,2.83-3.15h0A1.42,1.42,0,0,1,563,54a1.3,1.3,0,0,1-1.3-1.37,1.69,1.69,0,0,1,1.69-1.7,1.76,1.76,0,0,1,1.64,2c0,2.42-2.66,3.62-3.47,3.63Zm1.86-2.85a.9.9,0,0,0,1-.84c0-.74-.24-1.52-1-1.52s-1,.57-1,1.18S562.73,53.49,563.39,53.49Z"/><path class="cls-4" d="M566.22,51h3.51l.07.07L567,56.5l-.33-.12,2.48-4.75h-2.73l-.21.45-.2,0Z"/><path class="cls-4" d="M475.9,64.72h-.21c0-.42,0-.7-.63-.7h-1.18v4.35c0,.55.29.56.71.56v.21l-1.06,0-1.13,0v-.21c.42,0,.71,0,.71-.56V64h-1c-.7,0-.73.19-.86.7H471l.09-1.24h.16c.08.21.29.22.49.22h3.54c.28,0,.47-.07.5-.22H476Z"/><path class="cls-4" d="M476.28,67a1.51,1.51,0,0,0,0,.45,1.31,1.31,0,0,0,1.15,1.35,1.51,1.51,0,0,0,1.05-.53l.11.11a1.83,1.83,0,0,1-1.45.88,1.56,1.56,0,0,1-1.49-1.69c0-1.53,1-2,1.58-2a1.24,1.24,0,0,1,1.32,1.22.66.66,0,0,1,0,.14l-.07,0Zm1.38-.25c.19,0,.22-.1.22-.2a.66.66,0,0,0-.68-.72c-.48,0-.8.36-.9.92Z"/><path class="cls-4" d="M479.1,68.93h.15c.22,0,.37,0,.37-.25V64.34c0-.51-.11-.53-.41-.61V63.6a5.14,5.14,0,0,0,.8-.33,1,1,0,0,1,.17-.09c.05,0,.07,0,.07.11v5.39c0,.25.17.25.39.25h.13v.21l-.82,0-.85,0Z"/><path class="cls-4" d="M481.94,67a3,3,0,0,0,0,.45,1.31,1.31,0,0,0,1.15,1.35,1.47,1.47,0,0,0,1.05-.53l.11.11a1.81,1.81,0,0,1-1.44.88,1.56,1.56,0,0,1-1.49-1.69c0-1.53,1-2,1.58-2a1.22,1.22,0,0,1,1.31,1.22v.14l-.07,0Zm1.38-.25c.2,0,.22-.1.22-.2a.66.66,0,0,0-.68-.72c-.47,0-.8.36-.89.92Z"/><path class="cls-4" d="M485.91,70.53c0,.18.2.18.37.18h.35v.2h-2v-.2H485c.29,0,.33-.13.33-.25V66.77c0-.59-.23-.56-.46-.67V66c.3-.14.61-.29.92-.42a.19.19,0,0,1,.08,0s.08,0,.08.07v.55a1.89,1.89,0,0,1,1.18-.57,1.56,1.56,0,0,1,1.43,1.66,2,2,0,0,1-1.91,2,2.08,2.08,0,0,1-.7-.14Zm.7-4.44a1.34,1.34,0,0,0-.7.26v2.12a1,1,0,0,0,.84.54c.75,0,1.15-.78,1.15-1.45A1.34,1.34,0,0,0,486.61,66.09Z"/><path class="cls-4" d="M489.58,64.34c0-.51-.12-.53-.42-.61V63.6a5.79,5.79,0,0,0,.81-.33.56.56,0,0,1,.17-.09s.06,0,.06.11v3a1.88,1.88,0,0,1,1.2-.68,1,1,0,0,1,1,1.17v1.93c0,.25.18.25.39.25H493v.21l-.85,0-.84,0v-.21h.14c.37,0,.39-.08.39-.84V67.2c0-.56-.05-1.16-.76-1.16a1.39,1.39,0,0,0-.86.44v2.2c0,.25.17.25.39.25h.14v.21l-.83,0-.84,0v-.21h.14c.22,0,.38,0,.38-.25Z"/><path class="cls-4" d="M495.3,65.58a1.77,1.77,0,0,1,1.89,1.82,1.82,1.82,0,0,1-1.79,1.85,1.84,1.84,0,1,1-.1-3.67Zm.09,3.47c.78,0,1.09-.9,1.09-1.57s-.35-1.7-1.17-1.7-1.08.9-1.08,1.57S494.57,69.05,495.39,69.05Z"/><path class="cls-4" d="M498.24,66.61c0-.29-.08-.36-.45-.51V66a10.81,10.81,0,0,0,1-.37s.05,0,.05.07v.51a2.24,2.24,0,0,1,1.35-.58c.66,0,.89.48.89,1.09v2c0,.25.17.25.39.25h.14v.21l-.82,0-.85,0v-.21h.14c.22,0,.38,0,.38-.25v-2c0-.45-.27-.66-.72-.66a2,2,0,0,0-.9.37v2.31c0,.25.17.25.39.25h.14v.21l-.83,0-.84,0v-.21h.14c.22,0,.37,0,.37-.25Z"/><path class="cls-4" d="M502.82,67a1.51,1.51,0,0,0,0,.45A1.31,1.31,0,0,0,504,68.79a1.49,1.49,0,0,0,1-.53l.11.11a1.83,1.83,0,0,1-1.44.88,1.56,1.56,0,0,1-1.49-1.69c0-1.53,1-2,1.57-2a1.24,1.24,0,0,1,1.32,1.22.66.66,0,0,1,0,.14L505,67Zm1.38-.25c.2,0,.22-.1.22-.2a.66.66,0,0,0-.68-.72c-.48,0-.8.36-.9.92Z"/><path class="cls-4" d="M509.47,65.69H510v1.47h1.47v.51H510v1.47h-.51V67.67H508v-.51h1.47Z"/><path class="cls-4" d="M514.64,66.25a2,2,0,0,1,1.14,1.51,1.55,1.55,0,0,1-1.57,1.49A1.37,1.37,0,0,1,512.73,68c0-.71.5-1.09,1.14-1.46a1.79,1.79,0,0,1-1-1.4,1.42,1.42,0,0,1,1.51-1.49,1.26,1.26,0,0,1,1.39,1.23C515.74,65.52,515.15,66,514.64,66.25Zm-.62.41A1.5,1.5,0,0,0,513.3,68a.91.91,0,0,0,.9,1,.88.88,0,0,0,.91-1C515.11,67.42,514.51,67,514,66.66Zm.31-2.82a.89.89,0,0,0-.87,1c0,.61.54,1,1,1.32a1.49,1.49,0,0,0,.7-1.25C515.16,64.26,514.79,63.84,514.33,63.84Z"/><path class="cls-4" d="M519.26,68.6c0,.25.13.33.51.33h.35v.21l-1.23,0-1.28,0v-.21H518c.37,0,.5-.08.5-.33V64.35c-.35.2-.74.41-1.11.6l-.1-.19a15.17,15.17,0,0,0,1.85-1.12l.08,0Z"/><path class="cls-4" d="M523.31,67.49l-.93,0c-.32,0-.63,0-1,0l.07-.51,1,0,.93,0Z"/><path class="cls-4" d="M524.23,67.12l2.67-3.48h.34v3.28H528v.51h-.77v1.71h-.67V67.43h-2.34Zm2.34-2.54h0l-1.75,2.34h1.76Z"/><path class="cls-4" d="M528.76,69c1.52-1.32,2.5-2.59,2.5-3.62,0-.62-.29-1.2-1-1.2-.53,0-.82.38-1.13.74l-.14-.16a2,2,0,0,1,1.64-1.1A1.33,1.33,0,0,1,532,65.08c0,1.33-1.51,2.55-2.36,3.43h2.54l.17-.4h.21l-.22,1h-3.55Z"/><path class="cls-4" d="M535.32,67.49l-.94,0c-.32,0-.63,0-.94,0l.07-.51.94,0,.94,0Z"/><path class="cls-4" d="M540.05,63.8A3.65,3.65,0,0,0,537.23,67h0a1.45,1.45,0,0,1,1.3-.78,1.31,1.31,0,0,1,1.31,1.37,1.7,1.7,0,0,1-1.7,1.7,1.76,1.76,0,0,1-1.64-2c0-2.42,2.67-3.62,3.47-3.63Zm-1.86,2.85a.89.89,0,0,0-1,.84c0,.74.23,1.52,1,1.52s1-.57,1-1.18A1,1,0,0,0,538.19,66.65Z"/><path class="cls-4" d="M541.24,63.76h3.52l.06.06L542,69.25l-.34-.11,2.49-4.76h-2.74l-.21.45-.2,0Z"/><path class="cls-4" d="M545.77,63.76h3.52l.06.06-2.78,5.43-.34-.11,2.49-4.76H546l-.21.45-.2,0Z"/><path class="cls-4" d="M551.77,67.49l-.93,0c-.32,0-.64,0-1,0L550,67l.95,0,.93,0Z"/><path class="cls-4" d="M555,68.6c0,.25.13.33.51.33h.35v.21l-1.23,0-1.28,0v-.21h.43c.37,0,.5-.08.5-.33V64.35c-.35.2-.74.41-1.11.6l-.1-.19a15.17,15.17,0,0,0,1.85-1.12l.08,0Z"/><path class="cls-4" d="M559.45,68.6c0,.25.13.33.51.33h.35v.21l-1.23,0-1.28,0v-.21h.43c.37,0,.5-.08.5-.33V64.35c-.35.2-.74.41-1.11.6l-.1-.19a15.17,15.17,0,0,0,1.85-1.12l.08,0Z"/><path class="cls-4" d="M563.9,68.6c0,.25.13.33.51.33h.35v.21l-1.23,0-1.28,0v-.21h.43c.37,0,.5-.08.5-.33V64.35c-.35.2-.74.41-1.11.6l-.1-.19a15.17,15.17,0,0,0,1.85-1.12l.08,0Z"/><path class="cls-4" d="M568.35,68.6c0,.25.13.33.51.33h.35v.21l-1.22,0-1.29,0v-.21h.43c.37,0,.51-.08.51-.33V64.35c-.36.2-.74.41-1.12.6l-.1-.19a14.45,14.45,0,0,0,1.85-1.12l.08,0Z"/><path class="cls-4" d="M492.56,76.52c0-.5-.12-.52-.42-.6v-.13a5.32,5.32,0,0,0,.81-.33.7.7,0,0,1,.17-.09c.05,0,.06,0,.06.11v3a1.88,1.88,0,0,1,1.2-.69,1,1,0,0,1,1.05,1.18v1.93c0,.25.17.25.39.25H496v.21l-.85,0-.84,0v-.21h.14c.37,0,.39-.08.39-.85v-.88c0-.57-.05-1.16-.76-1.16a1.35,1.35,0,0,0-.86.44v2.2c0,.25.17.25.39.25h.14v.21l-.83,0-.84,0v-.21h.14c.22,0,.38,0,.38-.25Z"/><path class="cls-4" d="M497.45,80.37c0,.51.28.65.49.65a.8.8,0,0,0,.55-.22l.12.11a1.51,1.51,0,0,1-1,.53.65.65,0,0,1-.74-.72V78.3h-.52v-.12a3.33,3.33,0,0,0,1.05-1.09h.09v.79h1.16v.42h-1.16Z"/><path class="cls-4" d="M500.05,80.37c0,.51.28.65.49.65a.76.76,0,0,0,.54-.22l.12.11a1.47,1.47,0,0,1-1,.53.66.66,0,0,1-.75-.72V78.3h-.51v-.12a3.32,3.32,0,0,0,1-1.09h.1v.79h1.16v.42h-1.16Z"/><path class="cls-4" d="M502.75,82.71c0,.19.2.19.37.19h.35v.2h-2v-.2h.29c.29,0,.33-.13.33-.25V79c0-.6-.23-.56-.46-.67v-.12c.3-.14.61-.29.92-.42a.19.19,0,0,1,.08,0s.08,0,.08.07v.55a1.9,1.9,0,0,1,1.18-.58,1.57,1.57,0,0,1,1.43,1.66,2,2,0,0,1-1.91,2,2.08,2.08,0,0,1-.7-.14Zm.7-4.43a1.34,1.34,0,0,0-.7.26v2.12a1,1,0,0,0,.84.53c.75,0,1.15-.78,1.15-1.45A1.34,1.34,0,0,0,503.45,78.28Z"/><path class="cls-4" d="M506.16,80.24a1,1,0,0,0,1,1c.46,0,.63-.28.63-.55,0-.92-1.7-.62-1.7-1.88a1.08,1.08,0,0,1,1.21-1,2,2,0,0,1,.89.23l.06.8h-.18a.81.81,0,0,0-.85-.78.55.55,0,0,0-.61.52c0,.91,1.81.63,1.81,1.85,0,.52-.42,1.06-1.34,1.06a2.08,2.08,0,0,1-.95-.26l-.09-.9Z"/><path class="cls-4" d="M509.29,78.62a.54.54,0,0,1,.52-.52.53.53,0,0,1,.51.52.51.51,0,0,1-.51.51A.53.53,0,0,1,509.29,78.62Zm0,2.32a.55.55,0,0,1,.52-.53.54.54,0,0,1,.51.53.5.5,0,0,1-.51.5A.52.52,0,0,1,509.29,80.94Z"/><path class="cls-4" d="M510.92,81.44l1.83-5.67h.51l-1.82,5.67Z"/><path class="cls-4" d="M513,81.44l1.83-5.67h.51l-1.82,5.67Z"/><path class="cls-4" d="M516.08,78.68c-.22-.59-.3-.6-.6-.6v-.2l.78,0,.77,0v.2c-.27,0-.4,0-.4.15a.84.84,0,0,0,.06.24l.82,2.09.66-1.71a.75.75,0,0,0,0-.26c0-.37-.24-.48-.56-.51v-.2l.85,0,.77,0v.2c-.19,0-.44,0-.44.19a3.15,3.15,0,0,0,.18.58l.65,1.71h0l.66-1.7a1.88,1.88,0,0,0,.12-.55c0-.23-.31-.22-.46-.23v-.2l.73,0,.62,0v.2c-.36,0-.47.21-.61.57l-1.1,2.75-.28,0-1-2.45-.94,2.41-.27,0Z"/><path class="cls-4" d="M522.15,78.68c-.23-.59-.31-.6-.6-.6v-.2l.78,0,.77,0v.2c-.27,0-.41,0-.41.15a.64.64,0,0,0,.07.24l.81,2.09.67-1.71a.74.74,0,0,0,0-.26c0-.37-.24-.48-.56-.51v-.2l.85,0,.78,0v.2c-.2,0-.44,0-.44.19a2.51,2.51,0,0,0,.18.58l.65,1.71h0c.23-.56.45-1.13.66-1.7a1.85,1.85,0,0,0,.13-.55c0-.23-.31-.22-.47-.23v-.2l.73,0,.62,0v.2c-.35,0-.47.21-.61.57l-1.1,2.75-.28,0-1-2.45-.93,2.41-.28,0Z"/><path class="cls-4" d="M528.21,78.68c-.22-.59-.3-.6-.6-.6v-.2l.78,0,.77,0v.2c-.27,0-.4,0-.4.15a.84.84,0,0,0,.06.24l.82,2.09.66-1.71a.75.75,0,0,0,0-.26c0-.37-.24-.48-.56-.51v-.2l.85,0,.77,0v.2c-.2,0-.44,0-.44.19a3.15,3.15,0,0,0,.18.58l.65,1.71h0l.66-1.7a1.88,1.88,0,0,0,.12-.55c0-.23-.31-.22-.46-.23v-.2l.73,0,.61,0v.2c-.35,0-.46.21-.6.57l-1.1,2.75-.28,0-1-2.45-.94,2.41-.27,0Z"/><path class="cls-4" d="M533.36,80.94a.55.55,0,0,1,.52-.53.54.54,0,0,1,.51.53.5.5,0,0,1-.51.5A.52.52,0,0,1,533.36,80.94Z"/><path class="cls-4" d="M536.44,80.37c0,.51.28.65.49.65a.8.8,0,0,0,.55-.22l.12.11a1.51,1.51,0,0,1-1,.53.65.65,0,0,1-.74-.72V78.3h-.52v-.12a3.33,3.33,0,0,0,1.05-1.09h.09v.79h1.16v.42h-1.16Z"/><path class="cls-4" d="M538.48,78.75c0-.34-.12-.39-.41-.54v-.13a8.43,8.43,0,0,0,.84-.28.27.27,0,0,1,.14,0s.05,0,.05.11v.48a2.22,2.22,0,0,1,1.35-.59.79.79,0,0,1,.83.6,2.36,2.36,0,0,1,1.34-.6c.67,0,.92.53.92,1.1v2c0,.25.18.25.39.25h.12v.21l-.8,0-.84,0v-.21h.14c.21,0,.37,0,.37-.25V79.14c0-.49-.1-1-.68-1a2,2,0,0,0-.92.38v2.31c0,.25.18.25.4.25h.14v.21l-.83,0-.85,0v-.21h.14c.22,0,.38,0,.38-.25V79.14c0-.49-.1-1-.68-1a2,2,0,0,0-.92.38v2.31c0,.25.17.25.39.25h.14v.21l-.83,0-.86,0v-.21h.16c.22,0,.38,0,.38-.25Z"/><path class="cls-4" d="M547.83,80.9c0,.14.09.15.22.15h.31v.16a9.1,9.1,0,0,0-1.12.24l0,0v-.63a2.12,2.12,0,0,1-1.38.65.84.84,0,0,1-.86-.92v-2c0-.2,0-.4-.47-.44v-.14l1-.06c.09,0,.09.06.09.23v2c0,.23,0,.9.67.9a1.75,1.75,0,0,0,1-.47v-2.1c0-.16-.38-.24-.66-.32V78c.7,0,1.14-.11,1.22-.11s.06.06.06.14Z"/><path class="cls-4" d="M549.14,80.94a.52.52,0,1,1,1,0,.5.5,0,0,1-.51.5A.51.51,0,0,1,549.14,80.94Z"/><path class="cls-4" d="M554.56,81a1.17,1.17,0,0,1-.77.42c-.32,0-.47-.29-.49-.57a1.73,1.73,0,0,1-1.2.57.78.78,0,0,1-.84-.75c0-.63.35-.74,2-1.32v-.51c0-.44-.26-.68-.76-.68a.54.54,0,0,0-.59.55c0,.22-.25.33-.44.33s-.14-.1-.14-.16c0-.41.35-.61.9-.89a1.32,1.32,0,0,1,.7-.25c.35,0,.95.23.95.66v2.16c0,.32.11.44.28.44a.37.37,0,0,0,.29-.13ZM553.3,79.6c-.4.15-1.41.33-1.41.92a.56.56,0,0,0,.55.56,1.35,1.35,0,0,0,.86-.45Z"/><path class="cls-4" d="M558.17,80.63a2,2,0,0,1-1.52.81,1.65,1.65,0,0,1-1.55-1.61A2,2,0,0,1,557,77.76c.39,0,1.05.13,1.05.54a.31.31,0,0,1-.3.34c-.32,0-.31-.63-1-.63s-1,.75-1,1.34A1.38,1.38,0,0,0,558,80.5Z"/><path class="cls-4" d="M558.94,80.94a.52.52,0,1,1,1,0,.52.52,0,0,1-1,0Z"/><path class="cls-4" d="M562.13,81.62c0,1-.49,1.17-1.23,1.48l0-.18c.65-.31.65-.62.65-1.22v-3c0-.34-.11-.39-.51-.54v-.13a4,4,0,0,0,.94-.28.3.3,0,0,1,.14,0s.06,0,.06.11Zm-.31-5.06a.4.4,0,0,1-.39-.39.4.4,0,0,1,.39-.37.38.38,0,0,1,.38.37A.39.39,0,0,1,561.82,76.56Z"/><path class="cls-4" d="M564.29,82.71c0,.19.2.19.37.19H565v.2h-2v-.2h.29c.29,0,.33-.13.33-.25V79c0-.6-.23-.56-.46-.67v-.12c.3-.14.61-.29.92-.42l.08,0s.08,0,.08.07v.55a1.9,1.9,0,0,1,1.18-.58,1.58,1.58,0,0,1,1.44,1.66,2,2,0,0,1-1.92,2,2.08,2.08,0,0,1-.7-.14Zm.7-4.43a1.34,1.34,0,0,0-.7.26v2.12a1,1,0,0,0,.84.53c.75,0,1.15-.78,1.15-1.45A1.34,1.34,0,0,0,565,78.28Z"/><path class="cls-4" d="M567.23,81.44l1.82-5.67h.51l-1.82,5.67Z"/><path class="cls-5" d="M310.79,791.12A3,3,0,0,0,313.9,788a3.11,3.11,0,0,0-3.16-3.11,3,3,0,0,0-3.12,3.09A3.1,3.1,0,0,0,310.79,791.12Zm-1.89-3.27c0-1.18.46-2.43,1.75-2.43,1.45,0,2,1.66,2,2.77s-.46,2.44-1.75,2.44S308.9,789,308.9,787.85Z"/><path class="cls-5" d="M303.16,796.19a3,3,0,0,0-3.12,3.09,3.11,3.11,0,0,0,3.17,3.11,3,3,0,0,0,3.12-3.09A3.11,3.11,0,0,0,303.16,796.19Zm1.88,3.27c0,1.18-.45,2.44-1.74,2.44-1.45,0-2-1.66-2-2.78s.46-2.44,1.75-2.44C304.52,796.68,305,798.35,305,799.46Z"/><path class="cls-5" d="M289.63,802.39a3,3,0,0,0,3.12-3.09,3.11,3.11,0,0,0-3.17-3.11,3,3,0,0,0-3.12,3.09A3.11,3.11,0,0,0,289.63,802.39Zm-1.88-3.27c0-1.18.45-2.44,1.74-2.44,1.45,0,2,1.67,2,2.78s-.46,2.44-1.75,2.44C288.27,801.9,287.75,800.24,287.75,799.12Z"/><path class="cls-5" d="M286.57,785.58v-.67h-.26v0a.32.32,0,0,1-.09.15l-1,0h-2.32l-1,0a.26.26,0,0,1-.1-.15v0h-.26l0,.66-.05.76v0l.35,0,.09-.36c.11-.39.25-.42,1.06-.42h.48a1.93,1.93,0,0,1,.07.75v3.4c0,.68,0,.81-.19.84l-.42,0V791l1.14,0,1.24,0v-.33l-.42,0c-.18,0-.19-.16-.19-.84v-3.4a1.93,1.93,0,0,1,.07-.75h.48c.81,0,.95,0,1.06.42l.09.36.35,0Z"/><path class="cls-5" d="M320.38,801v-3.4a2.14,2.14,0,0,1,.07-.75h.48c.82,0,1,0,1.07.42l.09.36.34,0-.06-.8,0-.63v0h-.26v0a.26.26,0,0,1-.09.15l-1,0h-2.33l-1,0a.32.32,0,0,1-.09-.15v0h-.26l0,.66-.06.76v0l.34,0,.09-.36c.11-.39.25-.42,1.07-.42h.48a1.89,1.89,0,0,1,.07.75V801c0,.67,0,.81-.2.84l-.41,0v.33l1.14,0,1.23,0,0-.33-.42,0C320.4,801.85,320.38,801.71,320.38,801Z"/><path class="cls-5" d="M277.43,802.26v-.33l-.41,0c-.19,0-.2-.17-.2-.84v-3.4a1.89,1.89,0,0,1,.07-.75h.48c.81,0,.95,0,1.06.42l.09.36.35,0-.06-.8,0-.63v0h-.26v0a.32.32,0,0,1-.09.15l-1,0h-2.32l-1,0a.32.32,0,0,1-.1-.15v0h-.25l0,.66-.06.76v0l.35,0,.09-.36c.11-.39.25-.42,1.06-.42h.48a1.89,1.89,0,0,1,.07.75V801c0,.67,0,.81-.19.84l-.42,0,0,.33,1.13,0Z"/><path class="cls-5" d="M320.66,807.48v0h-.26v0a.2.2,0,0,1-.09.14c-.12,0-.58,0-1,0h-2.33c-.45,0-.91,0-1,0s-.07-.07-.09-.14v0h-.26l0,.67-.06.76v0l.34,0,.09-.37c.11-.38.25-.41,1.07-.41h.48a1.85,1.85,0,0,1,.07.75v3.4c0,.67,0,.81-.2.84l-.41.05v.33l1.14,0,1.23,0,0-.33-.42-.05c-.18,0-.2-.17-.2-.84v-3.4a2.14,2.14,0,0,1,.07-.75h.48c.82,0,1,0,1.07.41l.09.37.34,0-.06-.8Z"/><path class="cls-5" d="M290.66,784.92a3,3,0,0,0-3.12,3.09,3.1,3.1,0,0,0,3.17,3.11,3,3,0,0,0,3.11-3.09A3.11,3.11,0,0,0,290.66,784.92Zm1.88,3.27c0,1.18-.46,2.44-1.75,2.44-1.44,0-2-1.66-2-2.78s.46-2.43,1.75-2.43C292,785.42,292.54,787.08,292.54,788.19Z"/><path class="cls-5" d="M300.85,791h0l0-.33-.25,0c-.21,0-.42-.21-1-.83s-1.52-1.85-1.83-2.25v0l1.59-1.63c.33-.35.48-.45.71-.48l.25,0h0l0-.32h0l-.92,0c-.37,0-1,0-1,0h0v.33l.34,0c.08,0,.12.05.12.11s-.17.32-.5.68c-.53.6-1.14,1.23-1.49,1.56h0v-1.49c0-.66,0-.82.21-.85l.42-.07,0-.31-1.19,0-1.17,0v.31l.41.07c.19,0,.2.17.2.85v3.49c0,.68,0,.8-.2.83l-.43.09,0,.3h0l1.16,0h1.16l0-.31-.42-.08c-.18,0-.21-.13-.21-.83v-1.48l.07-.07h0a34.55,34.55,0,0,0,2.23,2.76h0l.82,0Z"/><path class="cls-5" d="M306.93,785.36l0-.31h0s-.48,0-.78,0-.93,0-.94,0h0l0,.32.31,0a.13.13,0,0,1,.13.15,2.23,2.23,0,0,1-.36.81l-.67,1.14-.69-1.2c-.05-.1-.11-.19-.16-.28a1.65,1.65,0,0,1-.23-.5s0-.08.13-.11l.28,0,0-.32h0l-1.22,0-1.05,0h-.05l0,.31.29.07c.19.05.35.24.76.93l1,1.65a.78.78,0,0,1,.14.49v1.27c0,.66,0,.8-.21.84l-.41.07,0,.31h0l1.15,0,1.12,0h0l0-.31-.42-.07c-.19,0-.2-.18-.2-.84v-1.38a.82.82,0,0,1,.14-.57l.91-1.47c.47-.76.59-.89.87-.94Z"/><path class="cls-5" d="M327,807.59l-.77,0-.94,0h0l0,.31.31.05c.09,0,.12,0,.12.14a2.32,2.32,0,0,1-.35.82l-.67,1.14-.69-1.21-.16-.27a1.6,1.6,0,0,1-.24-.5s0-.08.14-.11l.28-.06,0-.31h0l-1.22,0-1.06,0h0l0,.31.29.07c.19,0,.35.24.76.92l1,1.66a.72.72,0,0,1,.14.49v1.27c0,.66,0,.8-.2.84l-.42.07,0,.31h0l1.15,0,1.12,0h0l0-.31-.41-.07c-.19,0-.21-.18-.21-.84v-1.38a.88.88,0,0,1,.14-.57l.92-1.48c.47-.76.59-.88.86-.94l.23-.05,0-.3Z"/><path class="cls-5" d="M266.07,801l-.09-3.51c0-.67.09-.82.28-.84l.36,0v0s0-.22,0-.26v0h0c-.24,0-.55,0-.82,0l-.8,0h0v0c-.07.22-.22.65-.39,1.07l-1.39,3.47-1.49-3.47c-.17-.39-.33-.82-.41-1.07v0h0l-.9,0-.8,0h0l0,.33.34,0c.29,0,.34.46.33.82l-.08,3c0,1.07-.09,1.32-.32,1.36l-.37.07,0,.32h0s.59,0,.91,0,.94,0,1,0h0l.05-.31-.42-.08c-.29,0-.35-.28-.34-1.36l0-2.54,1.9,4.32h0a.94.94,0,0,0,.26,0,1,1,0,0,0,.27,0h0l1.79-4.35.07,3.1c0,.67,0,.8-.19.83l-.42.07,0,.32h.41l.79,0,.73,0h.42l0-.32-.38-.07C266.11,801.83,266.09,801.7,266.07,801Z"/><path class="cls-5" d="M270.91,802.23c.81,0,1.3,0,1.39,0h0a.16.16,0,0,0,.09-.09h0c.07-.35.18-.86.27-1.14v0h0l-.27-.07h0l-.19.33c-.23.42-.42.5-1.26.5h-.67c-.36,0-.48-.14-.48-.92v-1.35l0,0h.65c.68,0,.81.08.83.26l.05.37h.32V800c0-.27,0-.53,0-.74s0-.45,0-.72v-.12h0a1.21,1.21,0,0,0-.26,0h0l0,.32c0,.17-.15.24-.83.24h-.65l0,0v-1.34a1.71,1.71,0,0,1,.08-.71h.67c.8,0,1,0,1.19.45l.12.28h0l.26,0h0v0c-.07-.34-.14-.82-.17-1.08a.18.18,0,0,0-.1-.09h0c-.11,0-.51,0-1.3,0h-1.47c-.45,0-.84,0-1,0h0v0a1,1,0,0,0,0,.25v0l.4.07c.18,0,.2.15.2.83V801c0,.68,0,.8-.2.83l-.42.07v0a2.29,2.29,0,0,0,0,.25v0h.17l.9,0Z"/><path class="cls-5" d="M298.3,812.17h0l-.19.33c-.24.42-.43.49-1.27.49h-.66c-.36,0-.48-.13-.48-.91v-1.35l0,0h.65c.68,0,.81.08.83.26l.05.37h.31v-.11c0-.27,0-.53,0-.74s0-.46,0-.73v-.11h0a1.21,1.21,0,0,0-.26,0h0l0,.31c0,.18-.15.25-.83.25h-.65l0,0v-1.33a1.77,1.77,0,0,1,.08-.72h.67c.8,0,1,.06,1.19.46l.12.28h0l.26,0h0v0c-.08-.39-.15-.92-.18-1.08s-.05-.07-.09-.09H295l-1,0h0v0a2,2,0,0,0,0,.25v0l.4.08c.18,0,.19.15.19.83v3.5c0,.68,0,.8-.19.83l-.42.07v0a2.28,2.28,0,0,0,0,.26v0h.17l.91,0h1.82c.81,0,1.3,0,1.39,0h0a.2.2,0,0,0,.09-.09h0c.06-.36.18-.86.26-1.15v0l0,0Z"/><path class="cls-5" d="M285.92,801.93l-.22,0c-.26,0-.47-.27-1-.92a18.29,18.29,0,0,1-1.15-1.66v0h0a1.6,1.6,0,0,0,1.15-1.44c0-1-.76-1.56-2-1.56l-.66,0c-.3,0-.6,0-.87,0l-.63,0h-.42v0a2.17,2.17,0,0,0,0,.26v0l.4.07c.18,0,.2.15.2.83V801c0,.68,0,.8-.2.83l-.42.07v0a2.11,2.11,0,0,0,0,.26v0h.41l.78,0,.74,0h.42v0a2.42,2.42,0,0,0,0-.25v0l-.42-.07c-.18,0-.2-.14-.2-.83v-3.47a1.82,1.82,0,0,1,.08-.75,1.3,1.3,0,0,1,.36-.05,1.11,1.11,0,0,1,1.2,1.22,1.1,1.1,0,0,1-1.12,1.15h0l-.08.4h.14a.12.12,0,0,1,.1.06l.15.25a12.35,12.35,0,0,0,1.59,2.39h0c.19,0,.5,0,.83,0l.76,0h0v0a2.42,2.42,0,0,0,0-.27Z"/><path class="cls-5" d="M305.63,813.2l-.22,0c-.26,0-.47-.26-1-.91s-.91-1.25-1.15-1.66v0h0a1.6,1.6,0,0,0,1.15-1.44c0-1-.76-1.56-2-1.56l-.66,0-.87,0h-1v0a2.25,2.25,0,0,0,0,.26v0l.4.07c.18,0,.2.15.2.83v3.5c0,.68,0,.8-.2.83l-.41.07v0a2.17,2.17,0,0,0,0,.26v0h.4l.79,0,.74,0h.41v0a2.28,2.28,0,0,0,0-.26v0l-.43-.07c-.17,0-.2-.14-.2-.83v-3.47a1.82,1.82,0,0,1,.08-.75A1.32,1.32,0,0,1,302,808a1.11,1.11,0,0,1,1.2,1.22,1,1,0,0,1-.81,1.11,1,1,0,0,1-.31,0h-.05l-.08.4h.13a.12.12,0,0,1,.1.06l.15.25a12.66,12.66,0,0,0,1.59,2.39h0c.19,0,.5,0,.83,0l.77,0h0v0a2.43,2.43,0,0,0,0-.27Z"/><path class="cls-5" d="M298.12,796.71a2.37,2.37,0,0,0-1.42-.42h0l-.67,0c-.31,0-.62,0-.89,0l-.7,0h-.31v0a2.17,2.17,0,0,0,0,.26v0l.41.07c.18,0,.2.15.2.82V801c0,.68,0,.81-.2.83l-.41.06v0a2.26,2.26,0,0,0,0,.27v0h.4l.81,0,1,0h.34v0s0-.25,0-.28v0l-.53-.07c-.21,0-.31-.16-.31-.86v-3.43a1.76,1.76,0,0,1,.09-.73,1.5,1.5,0,0,1,.37-.05c.76,0,1.19.48,1.19,1.36h0c0,.83-.41,1.32-1.07,1.32h-.07l-.09.39h0a2.15,2.15,0,0,0,.51,0,1.92,1.92,0,0,0,1.92-1.82A1.59,1.59,0,0,0,298.12,796.71Z"/><path class="cls-5" d="M311.91,802.25a.16.16,0,0,0,.09-.09h0c.06-.31.2-.93.29-1.24v0l0,0a1.91,1.91,0,0,0-.28-.07h0l-.19.44c-.2.45-.43.5-1.28.5h-.62c-.36,0-.49-.08-.49-.92v-3.24c0-.71.06-.83.25-.86l.47-.07v0a2.17,2.17,0,0,0,0-.26v0h-.35l-.94,0-.78,0h-.4v0a2.29,2.29,0,0,0,0,.25v0l.42.07c.18,0,.19.15.19.83V801c0,.67,0,.81-.19.83l-.43.07v0a2.29,2.29,0,0,0,0,.25v0h.3l.79,0h1.78c.81,0,1.31,0,1.4,0h0Z"/><path class="cls-5" d="M315.88,802.26h0v0a2.29,2.29,0,0,0,0-.25v0l-.43-.07c-.17,0-.2-.14-.2-.83v-3.5c0-.69,0-.8.2-.83l.42-.07v0a2.29,2.29,0,0,0,0-.25v0h-.39l-.8,0-.75,0h-.4v0a2.17,2.17,0,0,0,0,.26v0l.41.06c.18,0,.2.15.2.83V801c0,.68,0,.8-.2.83l-.42.07v0a2,2,0,0,0,0,.25v0h.4l.79,0,.74,0Z"/><path class="cls-5" d="M313.67,812.31v-3.5c0-.7,0-.8.21-.83l.41-.07v0a2.29,2.29,0,0,0,0-.25v0h-2.34v0a2.17,2.17,0,0,0,0,.26v0l.41.06c.18,0,.2.15.2.83v3.5c0,.68,0,.8-.2.83l-.42.07v0a2,2,0,0,0,0,.25v0h.4l.79,0,.74,0h.41v0a2.29,2.29,0,0,0,0-.25v0l-.43-.07C313.7,813.11,313.67,813,313.67,812.31Z"/><path class="cls-5" d="M285.17,812.31v-3.5c0-.7,0-.8.2-.83l.42-.07v0a2.29,2.29,0,0,0,0-.25v0h-2.34v0a2.17,2.17,0,0,0,0,.26v0l.41.06c.18,0,.2.15.2.83v3.5c0,.68,0,.8-.2.83l-.42.07v0a2.29,2.29,0,0,0,0,.25v0h.4l.78,0,.74,0h.42v0a2.29,2.29,0,0,0,0-.25v0l-.43-.07C285.19,813.11,285.17,813,285.17,812.31Z"/><path class="cls-5" d="M327.71,801l-1.39-3.53a11.88,11.88,0,0,1-.44-1.22v0l-.23,0h0a2.51,2.51,0,0,1-.37.29,1.84,1.84,0,0,1-.45.24h0v0a1.08,1.08,0,0,1,0,.16,1,1,0,0,1-.07.29L323.44,801c-.24.72-.38.87-.59.92l-.27.07v0a2.29,2.29,0,0,0,0,.25v0H323l.5,0,.53,0h.44v0s0-.22,0-.26v0l-.35,0a.29.29,0,0,1-.21-.13,1,1,0,0,1,0-.75l.27-.79,0,0h1.82s0,0,.05,0l.28.79.06.14a3.29,3.29,0,0,1,.17.58c0,.07,0,.12-.21.16l-.34.06v0s0,.21,0,.25v0h.38l.83,0,.78,0h.39v0a2.42,2.42,0,0,0,0-.25v0l-.3-.06C328.09,801.83,328,801.66,327.71,801ZM326,799.6l0,0H324.5l0,0,.69-2.13Z"/><path class="cls-5" d="M336,796.35v0h-.4l-.63,0-.66,0h-.41v0a2.17,2.17,0,0,0,0,.26v0l.43.08c.32,0,.42.27.43,1.47v2.28l-2.58-3.05c-.44-.51-.68-.84-.83-1h0a.38.38,0,0,0-.11,0h0c-.29,0-.66,0-.9,0l-.77,0h0v0a2.62,2.62,0,0,0,0,.29v0l.33,0a.47.47,0,0,1,.37.21.76.76,0,0,1,.17.54v3c0,1.11-.08,1.32-.32,1.36l-.39.08v0s0,.21,0,.25v0h.41l.62,0,.65,0h.42v0a2.17,2.17,0,0,0,0-.26v0l-.42-.08c-.32-.05-.43-.28-.44-1.47v-2.58l3.27,3.83a6,6,0,0,1,.51.64.21.21,0,0,0,.16.08,3.55,3.55,0,0,0,.5,0h0v0a15.91,15.91,0,0,1-.07-1.67v-2.56c0-1.06.06-1.31.31-1.36l.37-.06v0A2.17,2.17,0,0,0,336,796.35Z"/><path class="cls-5" d="M282.05,807.59H280v0s0,.21,0,.26v0l.44.08c.31,0,.42.27.42,1.47v2.28l-2.58-3c-.44-.51-.68-.84-.83-1h0l-.11,0h0c-.28,0-.65,0-.89,0l-.77,0h0v0a2.53,2.53,0,0,0,0,.28v0l.32,0a.49.49,0,0,1,.38.21.81.81,0,0,1,.16.54v3c0,1.11-.08,1.32-.32,1.36l-.39.08v0s0,.21,0,.25v0h.41l.63,0,.65,0h.41v0a2.11,2.11,0,0,0,0-.26v0l-.43-.07c-.31,0-.43-.28-.43-1.48v-2.58l3.27,3.84c.29.34.45.56.51.64a.17.17,0,0,0,.15.08,3.48,3.48,0,0,0,.5,0h0v0a16,16,0,0,1-.07-1.68v-2.56c0-1.05.06-1.31.31-1.35l.37-.06v0s0-.22,0-.26Z"/><path class="cls-5" d="M274.47,807.59h-2.19v0a2.13,2.13,0,0,0,0,.27v0l.41.06c.3,0,.44.27.44,1.36v2.13c0,1.09-.47,1.64-1.4,1.64-.67,0-1.47-.29-1.47-1.64v-2.65c0-.66,0-.81.21-.84l.4-.07v0a2.17,2.17,0,0,0,0-.26v0h-2.34v0a2.17,2.17,0,0,0,0,.26v0l.41.07c.17,0,.2.13.2.83v2.72c0,1.42.86,2.16,2.49,2.16a2,2,0,0,0,2.2-2.21v-2.15c0-1.07.14-1.31.38-1.35l.34-.07v0a2,2,0,0,0,0-.25Z"/><path class="cls-5" d="M292.86,807.62v0h-1.93v0s0,.21,0,.24v0l.34.07a.29.29,0,0,1,.21.13c.1.17.07.47-.09.92l-1.12,3.16L289,808.85a1.21,1.21,0,0,0,0-.14,2.94,2.94,0,0,1-.17-.58c0-.08,0-.13.2-.16l.33-.06v0a2,2,0,0,0,0-.25v0h-2.38v0a2,2,0,0,0,0,.25v0l.29.06c.22,0,.33.22.59.92l1.47,3.82a7.66,7.66,0,0,1,.27.85v0h0a1.13,1.13,0,0,0,.38,0,1.06,1.06,0,0,0,.38,0h0v0a7,7,0,0,1,.26-.85l1.41-3.82c.27-.72.4-.87.6-.92l.26-.06v0A2.11,2.11,0,0,0,292.86,807.62Z"/><path class="cls-5" d="M309,810c-.58-.33-1.13-.64-1.13-1.22a.83.83,0,0,1,.93-.82,1,1,0,0,1,1.09.87v0h0l.26,0h0v0c-.05-.38-.08-.77-.1-1a.29.29,0,0,0-.08-.1h0a4.49,4.49,0,0,0-1.17-.15,1.75,1.75,0,0,0-2,1.71c0,1,.73,1.44,1.37,1.8s1.11.62,1.11,1.3-.4.92-1.06.92a1.31,1.31,0,0,1-1.4-1.22v0h0l-.27,0h0v0c.06.35.12,1,.14,1.23h0l.08.08a3.06,3.06,0,0,0,1.46.31,2.45,2.45,0,0,0,1.52-.49,1.73,1.73,0,0,0,.69-1.41C310.44,810.78,309.66,810.34,309,810Z"/><path class="cls-5" d="M297.41,704.84a120.07,120.07,0,0,1-29,13.58.44.44,0,0,0-.3.41c.55,25.08,11.63,43,29.21,58.38a.45.45,0,0,0,.56,0c17.57-15.36,28.65-33.3,29.2-58.38a.42.42,0,0,0-.29-.41,120.13,120.13,0,0,1-29-13.58A.41.41,0,0,0,297.41,704.84Z"/><path class="cls-6" d="M307.38,725.45c4.68,2.21,11,4.11,18.51,5.91a79.19,79.19,0,0,0,1.23-12.53.42.42,0,0,0-.29-.41,120.13,120.13,0,0,1-29-13.58.36.36,0,0,0-.22-.07v72.54a.48.48,0,0,0,.28-.1,115.64,115.64,0,0,0,9.22-9V725.6A.16.16,0,0,1,307.38,725.45Z"/><path class="cls-7" d="M297.36,777.21a.48.48,0,0,0,.28.1V704.77a.39.39,0,0,0-.23.07,120.07,120.07,0,0,1-29,13.58.44.44,0,0,0-.3.41,80.36,80.36,0,0,0,1.24,12.53c7.51-1.8,13.83-3.7,18.51-5.91a.17.17,0,0,1,.24.15v42.61A110.85,110.85,0,0,0,297.36,777.21Z"/><rect class="cls-8" x="250.87" y="696.27" width="93.54" height="125.85"/><line class="cls-8" x1="297.64" y1="696.27" x2="297.64" y2="704.69"/><line class="cls-8" x1="344.41" y1="759.19" x2="335.98" y2="759.19"/><line class="cls-8" x1="259.29" y1="759.19" x2="250.87" y2="759.19"/><line class="cls-8" x1="297.64" y1="813.69" x2="297.64" y2="822.12"/></g></g></svg>